<svg width="24" height="25" viewBox="0 0 24 25" fill="none" xmlns="http://www.w3.org/2000/svg">
<path d="M22 17.2399V5.16994C22 3.96994 21.02 3.07994 19.83 3.17994H19.77C17.67 3.35994 14.48 4.42994 12.7 5.54994L12.53 5.65994C12.24 5.83994 11.76 5.83994 11.47 5.65994L11.22 5.50994C9.44 4.39994 6.26 3.33994 4.16 3.16994C2.97 3.06994 2 3.96994 2 5.15994V17.2399C2 18.1999 2.78 19.0999 3.74 19.2199L4.03 19.2599C6.2 19.5499 9.55 20.6499 11.47 21.6999L11.51 21.7199C11.78 21.8699 12.21 21.8699 12.47 21.7199C14.39 20.6599 17.75 19.5499 19.93 19.2599L20.26 19.2199C21.22 19.0999 22 18.1999 22 17.2399Z" stroke="#828282" stroke-width="1.5" stroke-linecap="round" stroke-linejoin="round"/>
<path d="M12 5.98999V20.99" stroke="#828282" stroke-width="1.5" stroke-linecap="round" stroke-linejoin="round"/>
<path d="M7.75 8.98999H5.5" stroke="#828282" stroke-width="1.5" stroke-linecap="round" stroke-linejoin="round"/>
<path d="M8.5 11.99H5.5" stroke="#828282" stroke-width="1.5" stroke-linecap="round" stroke-linejoin="round"/>
</svg>
