<svg width="24" height="24" viewBox="0 0 24 24" fill="none" xmlns="http://www.w3.org/2000/svg">
<path d="M20.713 8.12798L20.467 8.69398C20.4286 8.78615 20.3637 8.86488 20.2806 8.92026C20.1975 8.97563 20.0999 9.00518 20 9.00518C19.9001 9.00518 19.8025 8.97563 19.7194 8.92026C19.6363 8.86488 19.5714 8.78615 19.533 8.69398L19.287 8.12798C18.8545 7.12671 18.0624 6.3239 17.067 5.87798L16.308 5.53898C16.2159 5.49662 16.1379 5.42875 16.0832 5.34341C16.0286 5.25807 15.9995 5.15884 15.9995 5.05748C15.9995 4.95613 16.0286 4.85689 16.0832 4.77155C16.1379 4.68621 16.2159 4.61834 16.308 4.57598L17.025 4.25698C18.0454 3.79836 18.8511 2.96586 19.276 1.93098L19.529 1.31998C19.5662 1.22534 19.631 1.14408 19.715 1.08681C19.799 1.02953 19.8983 0.998901 20 0.998901C20.1017 0.998901 20.201 1.02953 20.285 1.08681C20.369 1.14408 20.4338 1.22534 20.471 1.31998L20.724 1.92998C21.1485 2.96506 21.9538 3.79792 22.974 4.25698L23.692 4.57698C23.7838 4.61946 23.8615 4.68732 23.916 4.77256C23.9705 4.85779 23.9994 4.95683 23.9994 5.05798C23.9994 5.15914 23.9705 5.25818 23.916 5.34341C23.8615 5.42864 23.7838 5.4965 23.692 5.53898L22.932 5.87698C21.9368 6.32335 21.1451 7.12651 20.713 8.12798ZM20 11C20.6787 11.0005 21.3526 10.8859 21.993 10.661C21.9977 10.7743 22 10.8873 22 11C22 13.1217 21.1571 15.1565 19.6569 16.6568C18.1566 18.1571 16.1217 19 14 19V22.5C9 20.5 2 17.5 2 11C2 8.87825 2.84285 6.84342 4.34315 5.34313C5.84344 3.84284 7.87827 2.99998 10 2.99998H14C14.1133 2.99998 14.2263 3.00232 14.339 3.00698C14.0203 3.91191 13.9233 4.88006 14.056 5.83022C14.1888 6.78039 14.5475 7.68487 15.102 8.4678C15.6565 9.25072 16.3906 9.88926 17.2429 10.3299C18.0951 10.7704 19.0406 11.0003 20 11Z" fill="#388D4E"/>
</svg>
