<svg width="20" height="20" viewBox="0 0 20 20" fill="none" xmlns="http://www.w3.org/2000/svg">
<path d="M7.8916 12.7321C7.73327 12.7321 7.57493 12.6738 7.44993 12.5488C6.7666 11.8654 6.3916 10.9571 6.3916 9.99878C6.3916 8.00711 8.00827 6.39044 9.99993 6.39044C10.9583 6.39044 11.8666 6.76544 12.5499 7.44877C12.6666 7.56544 12.7333 7.72378 12.7333 7.89044C12.7333 8.05711 12.6666 8.21544 12.5499 8.33211L8.33327 12.5488C8.20827 12.6738 8.04993 12.7321 7.8916 12.7321ZM9.99993 7.64044C8.69993 7.64044 7.6416 8.69878 7.6416 9.99878C7.6416 10.4154 7.74993 10.8154 7.94993 11.1654L11.1666 7.94878C10.8166 7.74878 10.4166 7.64044 9.99993 7.64044Z" fill="#656565"/>
<path d="M4.66654 15.4242C4.52487 15.4242 4.37487 15.3742 4.2582 15.2742C3.36654 14.5159 2.56654 13.5825 1.8832 12.4992C0.99987 11.1242 0.99987 8.88254 1.8832 7.49921C3.91654 4.31588 6.87487 2.48254 9.99987 2.48254C11.8332 2.48254 13.6415 3.11588 15.2249 4.30754C15.4999 4.51588 15.5582 4.90754 15.3499 5.18254C15.1415 5.45754 14.7499 5.51588 14.4749 5.30754C13.1082 4.27421 11.5582 3.73254 9.99987 3.73254C7.3082 3.73254 4.7332 5.34921 2.9332 8.17421C2.3082 9.14921 2.3082 10.8492 2.9332 11.8242C3.5582 12.7992 4.27487 13.6409 5.06654 14.3242C5.32487 14.5492 5.3582 14.9409 5.1332 15.2075C5.01654 15.3492 4.84154 15.4242 4.66654 15.4242Z" fill="#656565"/>
<path d="M9.99977 17.5159C8.89143 17.5159 7.8081 17.2909 6.76643 16.8492C6.44977 16.7159 6.29977 16.3492 6.4331 16.0325C6.56643 15.7159 6.9331 15.5659 7.24977 15.6992C8.1331 16.0742 9.0581 16.2659 9.99143 16.2659C12.6831 16.2659 15.2581 14.6492 17.0581 11.8242C17.6831 10.8492 17.6831 9.14919 17.0581 8.17419C16.7998 7.76585 16.5164 7.37418 16.2164 7.00752C15.9998 6.74085 16.0414 6.34918 16.3081 6.12418C16.5748 5.90752 16.9664 5.94085 17.1914 6.21585C17.5164 6.61585 17.8331 7.04918 18.1164 7.49918C18.9998 8.87418 18.9998 11.1159 18.1164 12.4992C16.0831 15.6825 13.1248 17.5159 9.99977 17.5159Z" fill="#656565"/>
<path d="M10.5748 13.5574C10.2831 13.5574 10.0164 13.3491 9.95812 13.0491C9.89145 12.7074 10.1164 12.3824 10.4581 12.3241C11.3748 12.1574 12.1414 11.3907 12.3081 10.4741C12.3748 10.1324 12.6998 9.91573 13.0414 9.97407C13.3831 10.0407 13.6081 10.3657 13.5414 10.7074C13.2748 12.1491 12.1248 13.2907 10.6914 13.5574C10.6498 13.5491 10.6164 13.5574 10.5748 13.5574Z" fill="#656565"/>
<path d="M1.6665 18.9569C1.50816 18.9569 1.34983 18.8986 1.22483 18.7736C0.983162 18.5319 0.983162 18.1319 1.22483 17.8903L7.44983 11.6653C7.69149 11.4236 8.0915 11.4236 8.33316 11.6653C8.57483 11.9069 8.57483 12.3069 8.33316 12.5486L2.10816 18.7736C1.98316 18.8986 1.82483 18.9569 1.6665 18.9569Z" fill="#656565"/>
<path d="M12.1081 8.51582C11.9498 8.51582 11.7915 8.45749 11.6665 8.33249C11.4248 8.09082 11.4248 7.69082 11.6665 7.44916L17.8915 1.22416C18.1331 0.982491 18.5331 0.982491 18.7748 1.22416C19.0165 1.46582 19.0165 1.86582 18.7748 2.10749L12.5498 8.33249C12.4248 8.45749 12.2665 8.51582 12.1081 8.51582Z" fill="#656565"/>
</svg>
