<svg width="32" height="40" viewBox="0 0 32 40" fill="none" xmlns="http://www.w3.org/2000/svg">
<path d="M21.5866 6.66669H10.4133C5.55996 6.66669 2.66663 9.56002 2.66663 14.4134V25.5734C2.66663 30.44 5.55996 33.3334 10.4133 33.3334H21.5733C26.4266 33.3334 29.32 30.44 29.32 25.5867V14.4134C29.3333 9.56002 26.44 6.66669 21.5866 6.66669ZM18.3866 24C18.7733 24.3867 18.7733 25.0267 18.3866 25.4134C18.1866 25.6134 17.9333 25.7067 17.68 25.7067C17.4266 25.7067 17.1733 25.6134 16.9733 25.4134L12.2666 20.7067C11.88 20.32 11.88 19.68 12.2666 19.2934L16.9733 14.5867C17.36 14.2 18 14.2 18.3866 14.5867C18.7733 14.9734 18.7733 15.6134 18.3866 16L14.3866 20L18.3866 24Z" fill="#43A95D"/>
</svg>
