<svg width="21" height="20" viewBox="0 0 21 20" fill="none" xmlns="http://www.w3.org/2000/svg">
<path d="M7.16626 3.75012C6.61373 3.75012 6.08382 3.96962 5.69312 4.36032C5.30242 4.75102 5.08293 5.28092 5.08293 5.83346C5.08293 6.38599 5.30242 6.91589 5.69312 7.30659C6.08382 7.6973 6.61373 7.91679 7.16626 7.91679C7.71879 7.91679 8.2487 7.6973 8.6394 7.30659C9.0301 6.91589 9.24959 6.38599 9.24959 5.83346C9.24959 5.28092 9.0301 4.75102 8.6394 4.36032C8.2487 3.96962 7.71879 3.75012 7.16626 3.75012ZM3.83293 5.83346C3.83293 4.9494 4.18412 4.10155 4.80924 3.47643C5.43436 2.85131 6.2822 2.50012 7.16626 2.50012C8.05031 2.50012 8.89816 2.85131 9.52328 3.47643C10.1484 4.10155 10.4996 4.9494 10.4996 5.83346C10.4996 6.71751 10.1484 7.56536 9.52328 8.19048C8.89816 8.8156 8.05031 9.16679 7.16626 9.16679C6.2822 9.16679 5.43436 8.8156 4.80924 8.19048C4.18412 7.56536 3.83293 6.71751 3.83293 5.83346ZM14.6663 5.41679C14.3347 5.41679 14.0168 5.54848 13.7824 5.78291C13.548 6.01733 13.4163 6.33527 13.4163 6.66679C13.4163 6.99831 13.548 7.31625 13.7824 7.55067C14.0168 7.78509 14.3347 7.91679 14.6663 7.91679C14.9978 7.91679 15.3157 7.78509 15.5501 7.55067C15.7846 7.31625 15.9163 6.99831 15.9163 6.66679C15.9163 6.33527 15.7846 6.01733 15.5501 5.78291C15.3157 5.54848 14.9978 5.41679 14.6663 5.41679ZM12.1663 6.66679C12.1663 6.00375 12.4297 5.36786 12.8985 4.89902C13.3673 4.43018 14.0032 4.16679 14.6663 4.16679C15.3293 4.16679 15.9652 4.43018 16.434 4.89902C16.9029 5.36786 17.1663 6.00375 17.1663 6.66679C17.1663 7.32983 16.9029 7.96571 16.434 8.43456C15.9652 8.9034 15.3293 9.16679 14.6663 9.16679C14.0032 9.16679 13.3673 8.9034 12.8985 8.43456C12.4297 7.96571 12.1663 7.32983 12.1663 6.66679ZM2.16626 12.7085C2.16626 12.2112 2.3638 11.7343 2.71543 11.3826C3.06707 11.031 3.54398 10.8335 4.04126 10.8335H10.2913C10.5546 10.8335 10.8054 10.8876 11.0329 10.986C10.7379 11.3176 10.4829 11.686 10.2763 12.0835H4.04126C3.8755 12.0835 3.71653 12.1493 3.59932 12.2665C3.48211 12.3837 3.41626 12.5427 3.41626 12.7085V12.9226L3.42209 12.9893C3.42793 13.051 3.44126 13.146 3.46793 13.2635C3.52293 13.4976 3.63293 13.8101 3.85043 14.121C4.26126 14.7085 5.14793 15.4168 7.16626 15.4168C8.34376 15.4168 9.13543 15.1751 9.67293 14.8585C9.69543 15.3051 9.77209 15.7376 9.89626 16.1501C9.20043 16.4668 8.30709 16.6668 7.16626 16.6668C4.80959 16.6668 3.50793 15.8126 2.82626 14.8376C2.47003 14.3255 2.24719 13.7326 2.17793 13.1126C2.17207 13.0556 2.16818 12.9983 2.16626 12.941V12.7085ZM15.0838 19.1685C16.0895 19.1682 17.0672 18.8373 17.8663 18.2266C18.6653 17.6159 19.2414 16.7594 19.5057 15.789C19.77 14.8187 19.7079 13.7883 19.3289 12.8568C18.9499 11.9252 18.2751 11.1441 17.4084 10.6339C16.5417 10.1237 15.5313 9.91259 14.5329 10.0332C13.5344 10.1538 12.6034 10.5994 11.8831 11.3014C11.1629 12.0033 10.6935 12.9226 10.5472 13.9176C10.401 14.9126 10.586 15.9281 11.0738 16.8076L10.5188 18.6293C10.4965 18.7016 10.4944 18.7786 10.5127 18.852C10.5309 18.9254 10.5688 18.9925 10.6222 19.046C10.6756 19.0995 10.7427 19.1375 10.816 19.1559C10.8894 19.1742 10.9664 19.1722 11.0388 19.1501L12.8613 18.5951C13.5196 18.961 14.2779 19.1685 15.0838 19.1685ZM13.4171 14.1685C13.3065 14.1685 13.2004 14.1245 13.1222 14.0463C13.044 13.9681 13 13.862 13 13.7514C13 13.6408 13.044 13.5347 13.1222 13.4564C13.2004 13.3782 13.3065 13.3343 13.4171 13.3343H16.7504C16.8609 13.3343 16.9669 13.3782 17.0451 13.4563C17.1232 13.5345 17.1671 13.6404 17.1671 13.751C17.1671 13.8615 17.1232 13.9674 17.0451 14.0456C16.9669 14.1237 16.8609 14.1676 16.7504 14.1676L13.4171 14.1685ZM15.0838 15.8351H13.4171C13.3066 15.8351 13.2006 15.7912 13.1225 15.7131C13.0443 15.6349 13.0004 15.529 13.0004 15.4185C13.0004 15.3079 13.0443 15.202 13.1225 15.1238C13.2006 15.0457 13.3066 15.0018 13.4171 15.0018H15.0838C15.1943 15.0018 15.3002 15.0457 15.3784 15.1238C15.4565 15.202 15.5004 15.3079 15.5004 15.4185C15.5004 15.529 15.4565 15.6349 15.3784 15.7131C15.3002 15.7912 15.1943 15.8351 15.0838 15.8351Z" fill="#555555"/>
</svg>
