<svg width="54" height="44" viewBox="0 0 54 44" fill="none" xmlns="http://www.w3.org/2000/svg">
<rect x="0.5" y="0.5" width="53" height="43" rx="15.5" fill="white"/>
<rect x="0.5" y="0.5" width="53" height="43" rx="15.5" stroke="#D5D5D5"/>
<path d="M13.61 21.744C13.61 21.408 13.6893 21.1047 13.848 20.834C14.0067 20.554 14.2213 20.3347 14.492 20.176C14.7627 20.0173 15.0613 19.938 15.388 19.938C15.724 19.938 16.0273 20.0173 16.298 20.176C16.578 20.3347 16.7973 20.554 16.956 20.834C17.1147 21.1047 17.194 21.408 17.194 21.744C17.194 22.0707 17.1147 22.374 16.956 22.654C16.7973 22.9247 16.578 23.1393 16.298 23.298C16.0273 23.4567 15.724 23.536 15.388 23.536C15.0613 23.536 14.7627 23.4567 14.492 23.298C14.2213 23.1393 14.0067 22.9247 13.848 22.654C13.6893 22.3833 13.61 22.08 13.61 21.744ZM24.8209 21.744C24.8209 21.408 24.9003 21.1047 25.0589 20.834C25.2176 20.554 25.4323 20.3347 25.7029 20.176C25.9736 20.0173 26.2723 19.938 26.5989 19.938C26.9349 19.938 27.2383 20.0173 27.5089 20.176C27.7889 20.3347 28.0083 20.554 28.1669 20.834C28.3256 21.1047 28.4049 21.408 28.4049 21.744C28.4049 22.0707 28.3256 22.374 28.1669 22.654C28.0083 22.9247 27.7889 23.1393 27.5089 23.298C27.2383 23.4567 26.9349 23.536 26.5989 23.536C26.2723 23.536 25.9736 23.4567 25.7029 23.298C25.4323 23.1393 25.2176 22.9247 25.0589 22.654C24.9003 22.3833 24.8209 22.08 24.8209 21.744ZM36.0319 21.744C36.0319 21.408 36.1112 21.1047 36.2699 20.834C36.4285 20.554 36.6432 20.3347 36.9139 20.176C37.1845 20.0173 37.4832 19.938 37.8099 19.938C38.1459 19.938 38.4492 20.0173 38.7199 20.176C38.9999 20.3347 39.2192 20.554 39.3779 20.834C39.5365 21.1047 39.6159 21.408 39.6159 21.744C39.6159 22.0707 39.5365 22.374 39.3779 22.654C39.2192 22.9247 38.9999 23.1393 38.7199 23.298C38.4492 23.4567 38.1459 23.536 37.8099 23.536C37.4832 23.536 37.1845 23.4567 36.9139 23.298C36.6432 23.1393 36.4285 22.9247 36.2699 22.654C36.1112 22.3833 36.0319 22.08 36.0319 21.744Z" fill="#555555"/>
</svg>
