<svg width="22" height="22" viewBox="0 0 22 22" fill="none" xmlns="http://www.w3.org/2000/svg">
<path d="M18.713 7.12798L18.467 7.69398C18.4286 7.78615 18.3637 7.86488 18.2806 7.92026C18.1975 7.97563 18.0999 8.00518 18 8.00518C17.9001 8.00518 17.8025 7.97563 17.7194 7.92026C17.6363 7.86488 17.5714 7.78615 17.533 7.69398L17.287 7.12798C16.8545 6.12671 16.0624 5.3239 15.067 4.87798L14.308 4.53898C14.2159 4.49662 14.1379 4.42875 14.0832 4.34341C14.0286 4.25807 13.9995 4.15884 13.9995 4.05748C13.9995 3.95613 14.0286 3.85689 14.0832 3.77155C14.1379 3.68621 14.2159 3.61834 14.308 3.57598L15.025 3.25698C16.0454 2.79836 16.8511 1.96586 17.276 0.930982L17.529 0.319983C17.5662 0.225336 17.631 0.14408 17.715 0.0868075C17.799 0.0295345 17.8983 -0.00109863 18 -0.00109863C18.1017 -0.00109863 18.201 0.0295345 18.285 0.0868075C18.369 0.14408 18.4338 0.225336 18.471 0.319983L18.724 0.929982C19.1485 1.96506 19.9538 2.79792 20.974 3.25698L21.692 3.57698C21.7838 3.61946 21.8615 3.68732 21.916 3.77256C21.9705 3.85779 21.9994 3.95683 21.9994 4.05798C21.9994 4.15914 21.9705 4.25818 21.916 4.34341C21.8615 4.42864 21.7838 4.4965 21.692 4.53898L20.932 4.87698C19.9368 5.32335 19.1451 6.12651 18.713 7.12798ZM18 9.99998C18.6787 10.0005 19.3526 9.88589 19.993 9.66098C19.9977 9.77432 20 9.88732 20 9.99998C20 12.1217 19.1571 14.1565 17.6569 15.6568C16.1566 17.1571 14.1217 18 12 18V21.5C7 19.5 0 16.5 0 9.99998C0 7.87825 0.842855 5.84342 2.34315 4.34313C3.84344 2.84284 5.87827 1.99998 8 1.99998H12C12.1133 1.99998 12.2263 2.00232 12.339 2.00698C12.0203 2.91191 11.9233 3.88006 12.056 4.83022C12.1888 5.78039 12.5475 6.68487 13.102 7.4678C13.6565 8.25072 14.3906 8.88926 15.2429 9.32986C16.0951 9.77045 17.0406 10.0003 18 9.99998Z" fill="#388D4E"/>
</svg>
