<svg width="24" height="25" viewBox="0 0 24 25" fill="none" xmlns="http://www.w3.org/2000/svg">
<path d="M17.5399 8.81001C18.8986 8.81001 20 7.70863 20 6.35001C20 4.99139 18.8986 3.89001 17.5399 3.89001C16.1813 3.89001 15.08 4.99139 15.08 6.35001C15.08 7.70863 16.1813 8.81001 17.5399 8.81001Z" stroke="#828282" stroke-width="1.5" stroke-miterlimit="10" stroke-linecap="round" stroke-linejoin="round"/>
<path d="M6.46001 8.81001C7.81863 8.81001 8.92 7.70863 8.92 6.35001C8.92 4.99139 7.81863 3.89001 6.46001 3.89001C5.10139 3.89001 4 4.99139 4 6.35001C4 7.70863 5.10139 8.81001 6.46001 8.81001Z" stroke="#828282" stroke-width="1.5" stroke-miterlimit="10" stroke-linecap="round" stroke-linejoin="round"/>
<path d="M17.5399 21.1101C18.8986 21.1101 20 20.0087 20 18.6501C20 17.2914 18.8986 16.1901 17.5399 16.1901C16.1813 16.1901 15.08 17.2914 15.08 18.6501C15.08 20.0087 16.1813 21.1101 17.5399 21.1101Z" stroke="#828282" stroke-width="1.5" stroke-miterlimit="10" stroke-linecap="round" stroke-linejoin="round"/>
<path d="M6.46001 21.1101C7.81863 21.1101 8.92 20.0087 8.92 18.6501C8.92 17.2914 7.81863 16.1901 6.46001 16.1901C5.10139 16.1901 4 17.2914 4 18.6501C4 20.0087 5.10139 21.1101 6.46001 21.1101Z" stroke="#828282" stroke-width="1.5" stroke-miterlimit="10" stroke-linecap="round" stroke-linejoin="round"/>
</svg>
