<svg width="202" height="251" viewBox="0 0 202 251" fill="none" xmlns="http://www.w3.org/2000/svg">
<g filter="url(#filter0_d_2002_2947)">
<rect x="8.5" y="8" width="177" height="52" rx="8" fill="white"/>
<path d="M31.1663 27.7501C30.6137 27.7501 30.0838 27.9696 29.6931 28.3603C29.3024 28.751 29.0829 29.2809 29.0829 29.8335C29.0829 30.386 29.3024 30.9159 29.6931 31.3066C30.0838 31.6973 30.6137 31.9168 31.1663 31.9168C31.7188 31.9168 32.2487 31.6973 32.6394 31.3066C33.0301 30.9159 33.2496 30.386 33.2496 29.8335C33.2496 29.2809 33.0301 28.751 32.6394 28.3603C32.2487 27.9696 31.7188 27.7501 31.1663 27.7501ZM27.8329 29.8335C27.8329 28.9494 28.1841 28.1016 28.8092 27.4764C29.4344 26.8513 30.2822 26.5001 31.1663 26.5001C32.0503 26.5001 32.8982 26.8513 33.5233 27.4764C34.1484 28.1016 34.4996 28.9494 34.4996 29.8335C34.4996 30.7175 34.1484 31.5654 33.5233 32.1905C32.8982 32.8156 32.0503 33.1668 31.1663 33.1668C30.2822 33.1668 29.4344 32.8156 28.8092 32.1905C28.1841 31.5654 27.8329 30.7175 27.8329 29.8335ZM38.6663 29.4168C38.3347 29.4168 38.0168 29.5485 37.7824 29.7829C37.548 30.0173 37.4163 30.3353 37.4163 30.6668C37.4163 30.9983 37.548 31.3163 37.7824 31.5507C38.0168 31.7851 38.3347 31.9168 38.6663 31.9168C38.9978 31.9168 39.3157 31.7851 39.5501 31.5507C39.7846 31.3163 39.9163 30.9983 39.9163 30.6668C39.9163 30.3353 39.7846 30.0173 39.5501 29.7829C39.3157 29.5485 38.9978 29.4168 38.6663 29.4168ZM36.1663 30.6668C36.1663 30.0037 36.4297 29.3679 36.8985 28.899C37.3673 28.4302 38.0032 28.1668 38.6663 28.1668C39.3293 28.1668 39.9652 28.4302 40.434 28.899C40.9029 29.3679 41.1663 30.0037 41.1663 30.6668C41.1663 31.3298 40.9029 31.9657 40.434 32.4346C39.9652 32.9034 39.3293 33.1668 38.6663 33.1668C38.0032 33.1668 37.3673 32.9034 36.8985 32.4346C36.4297 31.9657 36.1663 31.3298 36.1663 30.6668ZM26.1663 36.7085C26.1663 36.2112 26.3638 35.7343 26.7154 35.3826C27.0671 35.031 27.544 34.8335 28.0413 34.8335H34.2913C34.5546 34.8335 34.8054 34.8876 35.0329 34.986C34.7379 35.3176 34.4829 35.686 34.2763 36.0835H28.0413C27.8755 36.0835 27.7165 36.1493 27.5993 36.2665C27.4821 36.3837 27.4163 36.5427 27.4163 36.7085V36.9226L27.4221 36.9893C27.4279 37.051 27.4413 37.146 27.4679 37.2635C27.5229 37.4976 27.6329 37.8101 27.8504 38.121C28.2613 38.7085 29.1479 39.4168 31.1663 39.4168C32.3438 39.4168 33.1354 39.1751 33.6729 38.8585C33.6954 39.3051 33.7721 39.7376 33.8963 40.1501C33.2004 40.4668 32.3071 40.6668 31.1663 40.6668C28.8096 40.6668 27.5079 39.8126 26.8263 38.8376C26.47 38.3255 26.2472 37.7326 26.1779 37.1126C26.1721 37.0556 26.1682 36.9983 26.1663 36.941V36.7085ZM39.0838 43.1685C40.0895 43.1682 41.0672 42.8373 41.8663 42.2266C42.6653 41.6159 43.2414 40.7594 43.5057 39.789C43.77 38.8187 43.7079 37.7883 43.3289 36.8568C42.9499 35.9252 42.2751 35.1441 41.4084 34.6339C40.5417 34.1237 39.5313 33.9126 38.5329 34.0332C37.5344 34.1538 36.6034 34.5994 35.8831 35.3014C35.1629 36.0033 34.6935 36.9226 34.5472 37.9176C34.401 38.9126 34.586 39.9281 35.0738 40.8076L34.5188 42.6293C34.4965 42.7016 34.4944 42.7786 34.5127 42.852C34.5309 42.9254 34.5688 42.9925 34.6222 43.046C34.6756 43.0995 34.7427 43.1375 34.816 43.1559C34.8894 43.1742 34.9664 43.1722 35.0388 43.1501L36.8613 42.5951C37.5196 42.961 38.2779 43.1685 39.0838 43.1685ZM37.4171 38.1685C37.3065 38.1685 37.2004 38.1245 37.1222 38.0463C37.044 37.9681 37 37.862 37 37.7514C37 37.6408 37.044 37.5347 37.1222 37.4564C37.2004 37.3782 37.3065 37.3343 37.4171 37.3343H40.7504C40.8609 37.3343 40.9669 37.3782 41.0451 37.4563C41.1232 37.5345 41.1671 37.6404 41.1671 37.751C41.1671 37.8615 41.1232 37.9674 41.0451 38.0456C40.9669 38.1237 40.8609 38.1676 40.7504 38.1676L37.4171 38.1685ZM39.0838 39.8351H37.4171C37.3066 39.8351 37.2006 39.7912 37.1225 39.7131C37.0443 39.6349 37.0004 39.529 37.0004 39.4185C37.0004 39.3079 37.0443 39.202 37.1225 39.1238C37.2006 39.0457 37.3066 39.0018 37.4171 39.0018H39.0838C39.1943 39.0018 39.3002 39.0457 39.3784 39.1238C39.4565 39.202 39.5004 39.3079 39.5004 39.4185C39.5004 39.529 39.4565 39.6349 39.3784 39.7131C39.3002 39.7912 39.1943 39.8351 39.0838 39.8351Z" fill="#555555"/>
<path d="M59.192 29.684C58.8467 29.5067 58.4687 29.3527 58.058 29.222C57.6473 29.0913 57.246 29.026 56.854 29.026C56.3127 29.026 55.8787 29.152 55.552 29.404C55.2347 29.656 55.076 29.992 55.076 30.412C55.076 30.7293 55.1787 31 55.384 31.224C55.5893 31.4387 55.86 31.6253 56.196 31.784C56.532 31.9427 56.882 32.092 57.246 32.232C57.5633 32.3533 57.876 32.4887 58.184 32.638C58.492 32.7873 58.7673 32.974 59.01 33.198C59.262 33.422 59.458 33.6973 59.598 34.024C59.7473 34.3507 59.822 34.7567 59.822 35.242C59.822 35.774 59.6867 36.2593 59.416 36.698C59.1547 37.1367 58.7767 37.482 58.282 37.734C57.7873 37.986 57.1993 38.112 56.518 38.112C56.07 38.112 55.6407 38.0607 55.23 37.958C54.8287 37.8553 54.4553 37.7247 54.11 37.566C53.7647 37.398 53.4567 37.2253 53.186 37.048L53.788 35.984C54.012 36.1427 54.2687 36.2967 54.558 36.446C54.8473 36.586 55.1507 36.7027 55.468 36.796C55.7853 36.88 56.0933 36.922 56.392 36.922C56.7093 36.922 57.022 36.866 57.33 36.754C57.6473 36.6327 57.9087 36.4507 58.114 36.208C58.3193 35.9653 58.422 35.6433 58.422 35.242C58.422 34.8967 58.3287 34.612 58.142 34.388C57.9647 34.1547 57.7267 33.9587 57.428 33.8C57.1293 33.632 56.812 33.4827 56.476 33.352C56.1587 33.2307 55.8367 33.1 55.51 32.96C55.1833 32.8107 54.88 32.6333 54.6 32.428C54.32 32.2133 54.096 31.952 53.928 31.644C53.76 31.336 53.676 30.9627 53.676 30.524C53.676 29.992 53.802 29.53 54.054 29.138C54.3153 28.7367 54.67 28.424 55.118 28.2C55.566 27.9667 56.0793 27.8407 56.658 27.822C57.3113 27.822 57.8853 27.9013 58.38 28.06C58.884 28.2187 59.3273 28.4147 59.71 28.648L59.192 29.684ZM66.4864 37.468C66.2251 37.6733 65.9124 37.8367 65.5484 37.958C65.1844 38.0793 64.8204 38.14 64.4564 38.14C63.8218 38.14 63.2664 38.014 62.7904 37.762C62.3144 37.51 61.9411 37.16 61.6704 36.712C61.4091 36.2547 61.2784 35.718 61.2784 35.102C61.2784 34.486 61.4184 33.9493 61.6984 33.492C61.9878 33.0347 62.3611 32.6847 62.8184 32.442C63.2851 32.19 63.7844 32.064 64.3164 32.064C64.7831 32.064 65.1984 32.1293 65.5624 32.26C65.9358 32.3907 66.2531 32.568 66.5144 32.792L65.8704 33.632C65.7024 33.5013 65.4971 33.3847 65.2544 33.282C65.0118 33.1793 64.7364 33.128 64.4284 33.128C64.0924 33.128 63.7798 33.2167 63.4904 33.394C63.2104 33.562 62.9864 33.7953 62.8184 34.094C62.6598 34.3927 62.5804 34.7287 62.5804 35.102C62.5804 35.4567 62.6644 35.788 62.8324 36.096C63.0004 36.3947 63.2338 36.6327 63.5324 36.81C63.8311 36.978 64.1718 37.062 64.5544 37.062C64.8064 37.062 65.0351 37.0247 65.2404 36.95C65.4551 36.8753 65.6464 36.7727 65.8144 36.642L66.4864 37.468ZM68.1672 38V27.164H69.4412V33.548L69.4132 33.31C69.6092 32.9273 69.9079 32.61 70.3092 32.358C70.7199 32.106 71.2005 31.98 71.7512 31.98C72.3019 31.98 72.7499 32.1433 73.0952 32.47C73.4499 32.7873 73.6319 33.2027 73.6412 33.716V38H72.3252V34.178C72.3159 33.8607 72.2225 33.604 72.0452 33.408C71.8772 33.2027 71.6112 33.1 71.2472 33.1C70.9112 33.1 70.6079 33.198 70.3372 33.394C70.0665 33.5807 69.8519 33.8373 69.6932 34.164C69.5439 34.4907 69.4692 34.864 69.4692 35.284V38H68.1672ZM78.5935 38.14C77.9308 38.14 77.3615 38.0093 76.8855 37.748C76.4095 37.4773 76.0408 37.1133 75.7795 36.656C75.5275 36.1893 75.4015 35.6573 75.4015 35.06C75.4015 34.4907 75.5462 33.9727 75.8355 33.506C76.1248 33.0393 76.5122 32.666 76.9975 32.386C77.4828 32.106 78.0242 31.966 78.6215 31.966C79.3868 31.966 80.0215 32.19 80.5255 32.638C81.0295 33.086 81.3702 33.702 81.5475 34.486L76.7735 36.166L76.4655 35.396L80.3855 33.968L80.1055 34.15C79.9935 33.842 79.8068 33.576 79.5455 33.352C79.2842 33.1187 78.9435 33.002 78.5235 33.002C78.1688 33.002 77.8515 33.0907 77.5715 33.268C77.2915 33.436 77.0722 33.6693 76.9135 33.968C76.7548 34.2667 76.6755 34.6073 76.6755 34.99C76.6755 35.3913 76.7595 35.746 76.9275 36.054C77.0955 36.3527 77.3242 36.5907 77.6135 36.768C77.9122 36.936 78.2482 37.02 78.6215 37.02C78.8735 37.02 79.1162 36.9733 79.3495 36.88C79.5922 36.7867 79.8162 36.6653 80.0215 36.516L80.6235 37.482C80.3342 37.678 80.0075 37.8367 79.6435 37.958C79.2888 38.0793 78.9388 38.14 78.5935 38.14ZM85.5309 38.14C84.9989 38.14 84.5136 38.014 84.0749 37.762C83.6456 37.5007 83.3049 37.1367 83.0529 36.67C82.8009 36.194 82.6749 35.648 82.6749 35.032C82.6749 34.388 82.8056 33.8373 83.0669 33.38C83.3376 32.9227 83.7016 32.5727 84.1589 32.33C84.6163 32.0873 85.1296 31.966 85.6989 31.966C86.1563 31.966 86.5903 32.064 87.0009 32.26C87.4209 32.456 87.7476 32.7267 87.9809 33.072L87.9249 33.534V27.164H89.2129V38H87.9109V36.558L88.0509 36.922C87.7803 37.2767 87.4303 37.5707 87.0009 37.804C86.5716 38.028 86.0816 38.14 85.5309 38.14ZM85.9369 37.034C86.2823 37.034 86.5903 36.9733 86.8609 36.852C87.1316 36.7213 87.3556 36.544 87.5329 36.32C87.7103 36.096 87.8363 35.83 87.9109 35.522V34.43C87.8363 34.15 87.7009 33.9073 87.5049 33.702C87.3183 33.4873 87.0896 33.3193 86.8189 33.198C86.5576 33.0673 86.2636 33.002 85.9369 33.002C85.5823 33.002 85.2556 33.0907 84.9569 33.268C84.6676 33.436 84.4343 33.6693 84.2569 33.968C84.0796 34.2667 83.9909 34.612 83.9909 35.004C83.9909 35.3867 84.0796 35.732 84.2569 36.04C84.4343 36.3387 84.6723 36.5813 84.9709 36.768C85.2696 36.9453 85.5916 37.034 85.9369 37.034ZM93.3118 38.224C92.7891 38.224 92.3551 38.0653 92.0098 37.748C91.6738 37.4213 91.4964 37.0013 91.4778 36.488V32.204H92.7798V36.026C92.7984 36.3433 92.8871 36.6 93.0458 36.796C93.2138 36.992 93.4751 37.0947 93.8298 37.104C94.1564 37.104 94.4458 37.0107 94.6978 36.824C94.9591 36.628 95.1691 36.3667 95.3278 36.04C95.4864 35.704 95.5658 35.326 95.5658 34.906V32.204H96.8678V38H95.6778L95.5658 36.572L95.6358 36.824C95.5238 37.0947 95.3511 37.3373 95.1178 37.552C94.8938 37.7573 94.6278 37.9207 94.3198 38.042C94.0118 38.1633 93.6758 38.224 93.3118 38.224ZM99.1203 27.164H100.422V38H99.1203V27.164ZM105.363 38.14C104.7 38.14 104.131 38.0093 103.655 37.748C103.179 37.4773 102.81 37.1133 102.549 36.656C102.297 36.1893 102.171 35.6573 102.171 35.06C102.171 34.4907 102.316 33.9727 102.605 33.506C102.894 33.0393 103.282 32.666 103.767 32.386C104.252 32.106 104.794 31.966 105.391 31.966C106.156 31.966 106.791 32.19 107.295 32.638C107.799 33.086 108.14 33.702 108.317 34.486L103.543 36.166L103.235 35.396L107.155 33.968L106.875 34.15C106.763 33.842 106.576 33.576 106.315 33.352C106.054 33.1187 105.713 33.002 105.293 33.002C104.938 33.002 104.621 33.0907 104.341 33.268C104.061 33.436 103.842 33.6693 103.683 33.968C103.524 34.2667 103.445 34.6073 103.445 34.99C103.445 35.3913 103.529 35.746 103.697 36.054C103.865 36.3527 104.094 36.5907 104.383 36.768C104.682 36.936 105.018 37.02 105.391 37.02C105.643 37.02 105.886 36.9733 106.119 36.88C106.362 36.7867 106.586 36.6653 106.791 36.516L107.393 37.482C107.104 37.678 106.777 37.8367 106.413 37.958C106.058 38.0793 105.708 38.14 105.363 38.14ZM116.786 38.14C116.245 38.14 115.75 38.0233 115.302 37.79C114.863 37.5567 114.513 37.216 114.252 36.768C114 36.3107 113.874 35.7553 113.874 35.102C113.874 34.458 114.009 33.9027 114.28 33.436C114.551 32.96 114.91 32.596 115.358 32.344C115.815 32.092 116.315 31.966 116.856 31.966C117.397 31.966 117.855 32.092 118.228 32.344C118.601 32.5867 118.886 32.876 119.082 33.212L118.998 33.436L119.124 32.204H120.328V38H119.026V36.488L119.166 36.824C119.129 36.9173 119.045 37.0387 118.914 37.188C118.793 37.328 118.625 37.4727 118.41 37.622C118.205 37.7713 117.967 37.8973 117.696 38C117.425 38.0933 117.122 38.14 116.786 38.14ZM117.136 37.062C117.463 37.062 117.757 37.0013 118.018 36.88C118.279 36.7587 118.494 36.5907 118.662 36.376C118.839 36.152 118.961 35.886 119.026 35.578V34.444C118.951 34.164 118.821 33.9213 118.634 33.716C118.447 33.5013 118.223 33.338 117.962 33.226C117.701 33.1047 117.411 33.044 117.094 33.044C116.749 33.044 116.431 33.128 116.142 33.296C115.853 33.464 115.619 33.6973 115.442 33.996C115.274 34.2947 115.19 34.6447 115.19 35.046C115.19 35.4193 115.279 35.76 115.456 36.068C115.633 36.376 115.871 36.6187 116.17 36.796C116.469 36.9733 116.791 37.062 117.136 37.062ZM128.635 38.112C128.224 38.112 127.823 38.042 127.431 37.902C127.048 37.7527 126.731 37.5333 126.479 37.244L127.025 36.488C127.268 36.7213 127.515 36.8987 127.767 37.02C128.028 37.132 128.285 37.188 128.537 37.188C128.724 37.188 128.896 37.1647 129.055 37.118C129.214 37.0713 129.34 36.9967 129.433 36.894C129.536 36.782 129.587 36.6327 129.587 36.446C129.587 36.2407 129.517 36.0773 129.377 35.956C129.246 35.8347 129.074 35.7367 128.859 35.662C128.654 35.5873 128.434 35.5173 128.201 35.452C127.725 35.2933 127.361 35.074 127.109 34.794C126.857 34.514 126.731 34.1733 126.731 33.772C126.731 33.464 126.806 33.1793 126.955 32.918C127.114 32.6473 127.342 32.428 127.641 32.26C127.949 32.092 128.327 32.008 128.775 32.008C129.176 32.008 129.536 32.0593 129.853 32.162C130.17 32.2553 130.469 32.414 130.749 32.638L130.231 33.45C130.063 33.2727 129.862 33.142 129.629 33.058C129.396 32.974 129.186 32.9273 128.999 32.918C128.84 32.9087 128.686 32.932 128.537 32.988C128.397 33.044 128.28 33.1233 128.187 33.226C128.094 33.3287 128.047 33.45 128.047 33.59C128.047 33.786 128.112 33.9447 128.243 34.066C128.374 34.1873 128.542 34.2853 128.747 34.36C128.962 34.4253 129.172 34.4953 129.377 34.57C129.666 34.654 129.923 34.766 130.147 34.906C130.371 35.046 130.548 35.2187 130.679 35.424C130.819 35.6293 130.889 35.886 130.889 36.194C130.889 36.5393 130.805 36.8613 130.637 37.16C130.478 37.4493 130.231 37.6827 129.895 37.86C129.568 38.028 129.148 38.112 128.635 38.112ZM135.4 38.14C134.737 38.14 134.168 38.0093 133.692 37.748C133.216 37.4773 132.847 37.1133 132.586 36.656C132.334 36.1893 132.208 35.6573 132.208 35.06C132.208 34.4907 132.353 33.9727 132.642 33.506C132.931 33.0393 133.319 32.666 133.804 32.386C134.289 32.106 134.831 31.966 135.428 31.966C136.193 31.966 136.828 32.19 137.332 32.638C137.836 33.086 138.177 33.702 138.354 34.486L133.58 36.166L133.272 35.396L137.192 33.968L136.912 34.15C136.8 33.842 136.613 33.576 136.352 33.352C136.091 33.1187 135.75 33.002 135.33 33.002C134.975 33.002 134.658 33.0907 134.378 33.268C134.098 33.436 133.879 33.6693 133.72 33.968C133.561 34.2667 133.482 34.6073 133.482 34.99C133.482 35.3913 133.566 35.746 133.734 36.054C133.902 36.3527 134.131 36.5907 134.42 36.768C134.719 36.936 135.055 37.02 135.428 37.02C135.68 37.02 135.923 36.9733 136.156 36.88C136.399 36.7867 136.623 36.6653 136.828 36.516L137.43 37.482C137.141 37.678 136.814 37.8367 136.45 37.958C136.095 38.0793 135.745 38.14 135.4 38.14ZM141.61 38.112C141.199 38.112 140.798 38.042 140.406 37.902C140.023 37.7527 139.706 37.5333 139.454 37.244L140 36.488C140.242 36.7213 140.49 36.8987 140.742 37.02C141.003 37.132 141.26 37.188 141.512 37.188C141.698 37.188 141.871 37.1647 142.03 37.118C142.188 37.0713 142.314 36.9967 142.408 36.894C142.51 36.782 142.562 36.6327 142.562 36.446C142.562 36.2407 142.492 36.0773 142.352 35.956C142.221 35.8347 142.048 35.7367 141.834 35.662C141.628 35.5873 141.409 35.5173 141.176 35.452C140.7 35.2933 140.336 35.074 140.084 34.794C139.832 34.514 139.706 34.1733 139.706 33.772C139.706 33.464 139.78 33.1793 139.93 32.918C140.088 32.6473 140.317 32.428 140.616 32.26C140.924 32.092 141.302 32.008 141.75 32.008C142.151 32.008 142.51 32.0593 142.828 32.162C143.145 32.2553 143.444 32.414 143.724 32.638L143.206 33.45C143.038 33.2727 142.837 33.142 142.604 33.058C142.37 32.974 142.16 32.9273 141.974 32.918C141.815 32.9087 141.661 32.932 141.512 32.988C141.372 33.044 141.255 33.1233 141.162 33.226C141.068 33.3287 141.022 33.45 141.022 33.59C141.022 33.786 141.087 33.9447 141.218 34.066C141.348 34.1873 141.516 34.2853 141.722 34.36C141.936 34.4253 142.146 34.4953 142.352 34.57C142.641 34.654 142.898 34.766 143.122 34.906C143.346 35.046 143.523 35.2187 143.654 35.424C143.794 35.6293 143.864 35.886 143.864 36.194C143.864 36.5393 143.78 36.8613 143.612 37.16C143.453 37.4493 143.206 37.6827 142.87 37.86C142.543 38.028 142.123 38.112 141.61 38.112ZM147.311 38.112C146.9 38.112 146.499 38.042 146.107 37.902C145.724 37.7527 145.407 37.5333 145.155 37.244L145.701 36.488C145.943 36.7213 146.191 36.8987 146.443 37.02C146.704 37.132 146.961 37.188 147.213 37.188C147.399 37.188 147.572 37.1647 147.731 37.118C147.889 37.0713 148.015 36.9967 148.109 36.894C148.211 36.782 148.263 36.6327 148.263 36.446C148.263 36.2407 148.193 36.0773 148.053 35.956C147.922 35.8347 147.749 35.7367 147.535 35.662C147.329 35.5873 147.11 35.5173 146.877 35.452C146.401 35.2933 146.037 35.074 145.785 34.794C145.533 34.514 145.407 34.1733 145.407 33.772C145.407 33.464 145.481 33.1793 145.631 32.918C145.789 32.6473 146.018 32.428 146.317 32.26C146.625 32.092 147.003 32.008 147.451 32.008C147.852 32.008 148.211 32.0593 148.529 32.162C148.846 32.2553 149.145 32.414 149.425 32.638L148.907 33.45C148.739 33.2727 148.538 33.142 148.305 33.058C148.071 32.974 147.861 32.9273 147.675 32.918C147.516 32.9087 147.362 32.932 147.213 32.988C147.073 33.044 146.956 33.1233 146.863 33.226C146.769 33.3287 146.723 33.45 146.723 33.59C146.723 33.786 146.788 33.9447 146.919 34.066C147.049 34.1873 147.217 34.2853 147.423 34.36C147.637 34.4253 147.847 34.4953 148.053 34.57C148.342 34.654 148.599 34.766 148.823 34.906C149.047 35.046 149.224 35.2187 149.355 35.424C149.495 35.6293 149.565 35.886 149.565 36.194C149.565 36.5393 149.481 36.8613 149.313 37.16C149.154 37.4493 148.907 37.6827 148.571 37.86C148.244 38.028 147.824 38.112 147.311 38.112ZM151.388 32.204H152.69V38H151.388V32.204ZM151.29 30.104C151.29 29.8987 151.369 29.726 151.528 29.586C151.696 29.446 151.878 29.376 152.074 29.376C152.27 29.376 152.443 29.446 152.592 29.586C152.751 29.726 152.83 29.8987 152.83 30.104C152.83 30.3187 152.751 30.496 152.592 30.636C152.443 30.7667 152.27 30.832 152.074 30.832C151.878 30.832 151.696 30.762 151.528 30.622C151.369 30.482 151.29 30.3093 151.29 30.104ZM154.439 35.046C154.439 34.4673 154.574 33.9447 154.845 33.478C155.125 33.0113 155.507 32.6427 155.993 32.372C156.478 32.1013 157.029 31.966 157.645 31.966C158.279 31.966 158.835 32.1013 159.311 32.372C159.787 32.6427 160.155 33.0113 160.417 33.478C160.678 33.9447 160.809 34.4673 160.809 35.046C160.809 35.6247 160.678 36.152 160.417 36.628C160.155 37.0947 159.782 37.4633 159.297 37.734C158.821 38.0047 158.265 38.14 157.631 38.14C157.015 38.14 156.464 38.014 155.979 37.762C155.503 37.5007 155.125 37.1413 154.845 36.684C154.574 36.2173 154.439 35.6713 154.439 35.046ZM155.741 35.06C155.741 35.4333 155.825 35.774 155.993 36.082C156.161 36.3807 156.385 36.6187 156.665 36.796C156.954 36.9733 157.271 37.062 157.617 37.062C157.981 37.062 158.303 36.9733 158.583 36.796C158.872 36.6187 159.096 36.3807 159.255 36.082C159.413 35.774 159.493 35.4333 159.493 35.06C159.493 34.6867 159.413 34.3507 159.255 34.052C159.096 33.744 158.872 33.5013 158.583 33.324C158.303 33.1373 157.981 33.044 157.617 33.044C157.262 33.044 156.94 33.1373 156.651 33.324C156.371 33.5107 156.147 33.758 155.979 34.066C155.82 34.3647 155.741 34.696 155.741 35.06ZM163.734 32.204L163.846 33.618L163.79 33.394C163.976 32.9647 164.28 32.624 164.7 32.372C165.12 32.1107 165.605 31.98 166.156 31.98C166.706 31.98 167.154 32.1433 167.5 32.47C167.854 32.7873 168.036 33.2027 168.046 33.716V38H166.73V34.178C166.72 33.8607 166.627 33.604 166.45 33.408C166.282 33.2027 166.016 33.1 165.652 33.1C165.316 33.1 165.012 33.1933 164.742 33.38C164.471 33.5667 164.256 33.8233 164.098 34.15C163.948 34.4767 163.874 34.8547 163.874 35.284V38H162.572V32.204H163.734Z" fill="#555555"/>
</g>
<g filter="url(#filter1_d_2002_2947)">
<rect x="15" y="80" width="164" height="52" rx="8" fill="white"/>
<path d="M42.8077 113.408C46.2944 113.178 49.071 110.361 49.2994 106.825C49.3435 106.133 49.3435 105.417 49.2994 104.725C49.071 101.19 46.2944 98.375 42.8077 98.1425C41.6035 98.0632 40.3953 98.0632 39.191 98.1425C35.7044 98.3742 32.9277 101.19 32.6994 104.726C32.6552 105.425 32.6552 106.127 32.6994 106.826C32.7827 108.113 33.3519 109.306 34.0227 110.313C34.4119 111.017 34.1552 111.896 33.7494 112.665C33.4577 113.219 33.311 113.496 33.4285 113.696C33.5452 113.896 33.8077 113.903 34.3319 113.915C35.3694 113.94 36.0685 113.647 36.6235 113.238C36.9377 113.005 37.0952 112.889 37.2035 112.876C37.3119 112.863 37.526 112.951 37.9527 113.126C38.336 113.284 38.7819 113.382 39.1902 113.409C40.3777 113.488 41.6185 113.488 42.8085 113.409" stroke="#555555" stroke-width="1.2" stroke-linecap="round" stroke-linejoin="round"/>
<path d="M39.7387 101.834V103.483M36.8329 104.751H38.5429M43.5187 104.751H45.2287M43.5187 107.229H45.2287M36.8329 107.229H38.5429M39.7387 108.517V110.167M42.2596 108.517V110.167M42.2521 101.833V103.483M39.3771 108.474H42.6862C42.9072 108.474 43.1192 108.386 43.2755 108.23C43.4318 108.074 43.5196 107.862 43.5196 107.641V104.317C43.5196 104.096 43.4318 103.884 43.2755 103.727C43.1192 103.571 42.9072 103.483 42.6862 103.483H39.3771C39.156 103.483 38.9441 103.571 38.7878 103.727C38.6315 103.884 38.5437 104.096 38.5437 104.317V107.641C38.5437 107.862 38.6315 108.074 38.7878 108.23C38.9441 108.386 39.156 108.474 39.3771 108.474Z" stroke="#555555" stroke-width="1.2" stroke-linecap="round" stroke-linejoin="round"/>
<path d="M65.692 101.684C65.3467 101.507 64.9687 101.353 64.558 101.222C64.1473 101.091 63.746 101.026 63.354 101.026C62.8127 101.026 62.3787 101.152 62.052 101.404C61.7347 101.656 61.576 101.992 61.576 102.412C61.576 102.729 61.6787 103 61.884 103.224C62.0893 103.439 62.36 103.625 62.696 103.784C63.032 103.943 63.382 104.092 63.746 104.232C64.0633 104.353 64.376 104.489 64.684 104.638C64.992 104.787 65.2673 104.974 65.51 105.198C65.762 105.422 65.958 105.697 66.098 106.024C66.2473 106.351 66.322 106.757 66.322 107.242C66.322 107.774 66.1867 108.259 65.916 108.698C65.6547 109.137 65.2767 109.482 64.782 109.734C64.2873 109.986 63.6993 110.112 63.018 110.112C62.57 110.112 62.1407 110.061 61.73 109.958C61.3287 109.855 60.9553 109.725 60.61 109.566C60.2647 109.398 59.9567 109.225 59.686 109.048L60.288 107.984C60.512 108.143 60.7687 108.297 61.058 108.446C61.3473 108.586 61.6507 108.703 61.968 108.796C62.2853 108.88 62.5933 108.922 62.892 108.922C63.2093 108.922 63.522 108.866 63.83 108.754C64.1473 108.633 64.4087 108.451 64.614 108.208C64.8193 107.965 64.922 107.643 64.922 107.242C64.922 106.897 64.8287 106.612 64.642 106.388C64.4647 106.155 64.2267 105.959 63.928 105.8C63.6293 105.632 63.312 105.483 62.976 105.352C62.6587 105.231 62.3367 105.1 62.01 104.96C61.6833 104.811 61.38 104.633 61.1 104.428C60.82 104.213 60.596 103.952 60.428 103.644C60.26 103.336 60.176 102.963 60.176 102.524C60.176 101.992 60.302 101.53 60.554 101.138C60.8153 100.737 61.17 100.424 61.618 100.2C62.066 99.9667 62.5793 99.8407 63.158 99.822C63.8113 99.822 64.3853 99.9013 64.88 100.06C65.384 100.219 65.8273 100.415 66.21 100.648L65.692 101.684ZM71.6984 110.14C71.2598 110.14 70.8351 110.037 70.4244 109.832C70.0231 109.627 69.7104 109.351 69.4864 109.006L69.5704 108.6V112.786H68.2824V104.12H69.4024L69.5844 105.604L69.4444 105.198C69.7244 104.843 70.0791 104.549 70.5084 104.316C70.9378 104.083 71.4184 103.966 71.9504 103.966C72.4918 103.966 72.9771 104.097 73.4064 104.358C73.8451 104.619 74.1904 104.983 74.4424 105.45C74.6944 105.917 74.8204 106.463 74.8204 107.088C74.8204 107.713 74.6851 108.255 74.4144 108.712C74.1438 109.169 73.7704 109.524 73.2944 109.776C72.8278 110.019 72.2958 110.14 71.6984 110.14ZM71.4464 109.104C71.8198 109.104 72.1604 109.02 72.4684 108.852C72.7858 108.675 73.0378 108.437 73.2244 108.138C73.4111 107.83 73.5044 107.485 73.5044 107.102C73.5044 106.71 73.4158 106.365 73.2384 106.066C73.0611 105.758 72.8231 105.515 72.5244 105.338C72.2351 105.161 71.9084 105.072 71.5444 105.072C71.2084 105.072 70.9051 105.137 70.6344 105.268C70.3638 105.399 70.1398 105.581 69.9624 105.814C69.7851 106.038 69.6591 106.299 69.5844 106.598V107.564C69.6311 107.863 69.7431 108.129 69.9204 108.362C70.0978 108.595 70.3171 108.777 70.5784 108.908C70.8491 109.039 71.1384 109.104 71.4464 109.104ZM79.2693 110.14C78.6066 110.14 78.0373 110.009 77.5613 109.748C77.0853 109.477 76.7166 109.113 76.4553 108.656C76.2033 108.189 76.0773 107.657 76.0773 107.06C76.0773 106.491 76.2219 105.973 76.5113 105.506C76.8006 105.039 77.1879 104.666 77.6733 104.386C78.1586 104.106 78.6999 103.966 79.2973 103.966C80.0626 103.966 80.6973 104.19 81.2013 104.638C81.7053 105.086 82.0459 105.702 82.2233 106.486L77.4493 108.166L77.1413 107.396L81.0613 105.968L80.7813 106.15C80.6693 105.842 80.4826 105.576 80.2213 105.352C79.9599 105.119 79.6193 105.002 79.1993 105.002C78.8446 105.002 78.5273 105.091 78.2473 105.268C77.9673 105.436 77.7479 105.669 77.5893 105.968C77.4306 106.267 77.3513 106.607 77.3513 106.99C77.3513 107.391 77.4353 107.746 77.6033 108.054C77.7713 108.353 77.9999 108.591 78.2893 108.768C78.5879 108.936 78.9239 109.02 79.2973 109.02C79.5493 109.02 79.7919 108.973 80.0253 108.88C80.2679 108.787 80.4919 108.665 80.6973 108.516L81.2993 109.482C81.0099 109.678 80.6833 109.837 80.3193 109.958C79.9646 110.079 79.6146 110.14 79.2693 110.14ZM86.2627 110.14C85.7214 110.14 85.2267 110.023 84.7787 109.79C84.34 109.557 83.99 109.216 83.7287 108.768C83.4767 108.311 83.3507 107.755 83.3507 107.102C83.3507 106.458 83.486 105.903 83.7567 105.436C84.0274 104.96 84.3867 104.596 84.8347 104.344C85.292 104.092 85.7914 103.966 86.3327 103.966C86.874 103.966 87.3314 104.092 87.7047 104.344C88.078 104.587 88.3627 104.876 88.5587 105.212L88.4747 105.436L88.6007 104.204H89.8047V110H88.5027V108.488L88.6427 108.824C88.6054 108.917 88.5214 109.039 88.3907 109.188C88.2694 109.328 88.1014 109.473 87.8867 109.622C87.6814 109.771 87.4434 109.897 87.1727 110C86.902 110.093 86.5987 110.14 86.2627 110.14ZM86.6127 109.062C86.9394 109.062 87.2334 109.001 87.4947 108.88C87.756 108.759 87.9707 108.591 88.1387 108.376C88.316 108.152 88.4374 107.886 88.5027 107.578V106.444C88.428 106.164 88.2974 105.921 88.1107 105.716C87.924 105.501 87.7 105.338 87.4387 105.226C87.1774 105.105 86.888 105.044 86.5707 105.044C86.2254 105.044 85.908 105.128 85.6187 105.296C85.3294 105.464 85.096 105.697 84.9187 105.996C84.7507 106.295 84.6667 106.645 84.6667 107.046C84.6667 107.419 84.7554 107.76 84.9327 108.068C85.11 108.376 85.348 108.619 85.6467 108.796C85.9454 108.973 86.2674 109.062 86.6127 109.062ZM92.0578 110V99.164H93.3598V110H92.0578ZM94.7598 106.15L97.4198 110H95.8938L93.8918 106.878L94.7598 106.15ZM92.9538 108.152L92.8278 106.906L96.3418 104.078L97.1398 104.764L92.9538 108.152ZM107.17 104.204L108.878 108.11L108.626 108.138L110.222 104.204H111.496L108.836 110.35L106.974 106.374L105.28 110.35L102.592 104.204H103.866L105.672 108.292L105.224 108.208L106.512 105.212L106.05 104.204H107.17ZM112.894 104.204H114.196V110H112.894V104.204ZM112.796 102.104C112.796 101.899 112.875 101.726 113.034 101.586C113.202 101.446 113.384 101.376 113.58 101.376C113.776 101.376 113.948 101.446 114.098 101.586C114.256 101.726 114.336 101.899 114.336 102.104C114.336 102.319 114.256 102.496 114.098 102.636C113.948 102.767 113.776 102.832 113.58 102.832C113.384 102.832 113.202 102.762 113.034 102.622C112.875 102.482 112.796 102.309 112.796 102.104ZM117.008 101.656H118.31V104.232H119.906V105.254H118.31V110H117.008V105.254H115.944V104.232H117.008V101.656ZM121.48 110V99.164H122.754V105.548L122.726 105.31C122.922 104.927 123.22 104.61 123.622 104.358C124.032 104.106 124.513 103.98 125.064 103.98C125.614 103.98 126.062 104.143 126.408 104.47C126.762 104.787 126.944 105.203 126.954 105.716V110H125.638V106.178C125.628 105.861 125.535 105.604 125.358 105.408C125.19 105.203 124.924 105.1 124.56 105.1C124.224 105.1 123.92 105.198 123.65 105.394C123.379 105.581 123.164 105.837 123.006 106.164C122.856 106.491 122.782 106.864 122.782 107.284V110H121.48Z" fill="#555555"/>
<path d="M133.914 110V99.444H133.928L139.416 107.214L138.716 107.06L144.176 99.444H144.204V110H142.58V103.126L142.692 103.966L139.01 109.174H138.982L135.216 103.966L135.496 103.196V110H133.914ZM146.676 104.078H148.244V110H146.676V104.078ZM146.606 101.964C146.606 101.721 146.699 101.521 146.886 101.362C147.082 101.203 147.292 101.124 147.516 101.124C147.74 101.124 147.94 101.203 148.118 101.362C148.304 101.521 148.398 101.721 148.398 101.964C148.398 102.207 148.304 102.407 148.118 102.566C147.94 102.715 147.74 102.79 147.516 102.79C147.292 102.79 147.082 102.711 146.886 102.552C146.699 102.393 146.606 102.197 146.606 101.964ZM151.808 104.078L151.948 105.758L151.892 105.52C152.06 105.165 152.289 104.862 152.578 104.61C152.877 104.349 153.18 104.153 153.488 104.022C153.796 103.882 154.048 103.812 154.244 103.812L154.174 105.38C153.726 105.343 153.334 105.427 152.998 105.632C152.672 105.828 152.415 106.089 152.228 106.416C152.051 106.743 151.962 107.088 151.962 107.452V110H150.394V104.078H151.808ZM158.177 110.154C157.617 110.154 157.109 110.037 156.651 109.804C156.203 109.571 155.849 109.225 155.587 108.768C155.326 108.301 155.195 107.727 155.195 107.046C155.195 106.374 155.331 105.8 155.601 105.324C155.881 104.839 156.245 104.465 156.693 104.204C157.151 103.943 157.645 103.812 158.177 103.812C158.747 103.812 159.204 103.924 159.549 104.148C159.904 104.372 160.179 104.638 160.375 104.946L160.291 105.17L160.445 104.078H161.887V110H160.319V108.558L160.473 108.936C160.436 108.992 160.361 109.085 160.249 109.216C160.137 109.337 159.983 109.473 159.787 109.622C159.591 109.771 159.358 109.897 159.087 110C158.826 110.103 158.523 110.154 158.177 110.154ZM158.611 108.866C158.891 108.866 159.143 108.815 159.367 108.712C159.601 108.609 159.797 108.465 159.955 108.278C160.123 108.091 160.245 107.867 160.319 107.606V106.318C160.245 106.075 160.123 105.865 159.955 105.688C159.787 105.501 159.582 105.357 159.339 105.254C159.106 105.151 158.845 105.1 158.555 105.1C158.238 105.1 157.944 105.179 157.673 105.338C157.403 105.497 157.183 105.716 157.015 105.996C156.857 106.276 156.777 106.598 156.777 106.962C156.777 107.317 156.861 107.639 157.029 107.928C157.197 108.217 157.421 108.446 157.701 108.614C157.981 108.782 158.285 108.866 158.611 108.866Z" fill="url(#paint0_linear_2002_2947)"/>
</g>
<g filter="url(#filter2_d_2002_2947)">
<rect x="67" y="172" width="60" height="60" rx="30" fill="#388D4E"/>
<path d="M100.59 191.9V195.97C100.59 196.33 100.55 196.67 100.46 196.98C100.09 198.45 98.87 199.37 97.19 199.37H94.47L91.45 201.38C91 201.69 90.4 201.36 90.4 200.82V199.37C89.38 199.37 88.53 199.03 87.94 198.44C87.34 197.84 87 196.99 87 195.97V191.9C87 190 88.18 188.69 90 188.52C90.13 188.51 90.26 188.5 90.4 188.5H97.19C99.23 188.5 100.59 189.86 100.59 191.9Z" fill="white"/>
<path d="M102.75 195.1C104.02 195.1 105.09 194.68 105.83 193.93C106.58 193.19 107 192.12 107 190.85V185.75C107 183.4 105.1 181.5 102.75 181.5H94.25C91.9 181.5 90 183.4 90 185.75V186.5C90 186.78 90.22 187 90.5 187H97.19C99.9 187 102.09 189.19 102.09 191.9V194.6C102.09 194.88 102.31 195.1 102.59 195.1H102.75Z" fill="white"/>
<path d="M89.0223 218.852C88.8783 218.948 88.6823 219.056 88.4343 219.176C88.1863 219.296 87.8943 219.396 87.5583 219.476C87.2303 219.556 86.8703 219.596 86.4783 219.596C85.8063 219.588 85.1983 219.468 84.6543 219.236C84.1183 219.004 83.6623 218.688 83.2863 218.288C82.9103 217.888 82.6183 217.428 82.4103 216.908C82.2103 216.38 82.1103 215.82 82.1103 215.228C82.1103 214.58 82.2143 213.984 82.4223 213.44C82.6383 212.888 82.9383 212.412 83.3223 212.012C83.7063 211.604 84.1583 211.288 84.6783 211.064C85.2063 210.84 85.7823 210.728 86.4063 210.728C86.9263 210.728 87.3983 210.8 87.8223 210.944C88.2463 211.08 88.6103 211.244 88.9143 211.436L88.4463 212.516C88.2063 212.356 87.9143 212.204 87.5703 212.06C87.2343 211.916 86.8583 211.844 86.4423 211.844C86.0183 211.844 85.6183 211.928 85.2423 212.096C84.8663 212.264 84.5343 212.5 84.2463 212.804C83.9583 213.108 83.7303 213.464 83.5623 213.872C83.4023 214.272 83.3223 214.704 83.3223 215.168C83.3223 215.64 83.3943 216.08 83.5383 216.488C83.6903 216.888 83.9023 217.236 84.1743 217.532C84.4543 217.828 84.7903 218.06 85.1823 218.228C85.5743 218.396 86.0143 218.48 86.5023 218.48C86.9423 218.48 87.3343 218.412 87.6783 218.276C88.0223 218.14 88.3063 217.988 88.5303 217.82L89.0223 218.852ZM90.7064 219.5V210.212H91.7984V215.684L91.7744 215.48C91.9424 215.152 92.1984 214.88 92.5424 214.664C92.8944 214.448 93.3064 214.34 93.7784 214.34C94.2504 214.34 94.6344 214.48 94.9304 214.76C95.2344 215.032 95.3904 215.388 95.3984 215.828V219.5H94.2704V216.224C94.2624 215.952 94.1824 215.732 94.0304 215.564C93.8864 215.388 93.6584 215.3 93.3464 215.3C93.0584 215.3 92.7984 215.384 92.5664 215.552C92.3344 215.712 92.1504 215.932 92.0144 216.212C91.8864 216.492 91.8224 216.812 91.8224 217.172V219.5H90.7064ZM99.4032 219.62C98.9392 219.62 98.5152 219.52 98.1312 219.32C97.7552 219.12 97.4552 218.828 97.2312 218.444C97.0152 218.052 96.9072 217.576 96.9072 217.016C96.9072 216.464 97.0232 215.988 97.2552 215.588C97.4872 215.18 97.7952 214.868 98.1792 214.652C98.5712 214.436 98.9992 214.328 99.4632 214.328C99.9272 214.328 100.319 214.436 100.639 214.652C100.959 214.86 101.203 215.108 101.371 215.396L101.299 215.588L101.407 214.532H102.439V219.5H101.323V218.204L101.443 218.492C101.411 218.572 101.339 218.676 101.227 218.804C101.123 218.924 100.979 219.048 100.795 219.176C100.619 219.304 100.415 219.412 100.183 219.5C99.9512 219.58 99.6912 219.62 99.4032 219.62ZM99.7032 218.696C99.9832 218.696 100.235 218.644 100.459 218.54C100.683 218.436 100.867 218.292 101.011 218.108C101.163 217.916 101.267 217.688 101.323 217.424V216.452C101.259 216.212 101.147 216.004 100.987 215.828C100.827 215.644 100.635 215.504 100.411 215.408C100.187 215.304 99.9392 215.252 99.6672 215.252C99.3712 215.252 99.0992 215.324 98.8512 215.468C98.6032 215.612 98.4032 215.812 98.2512 216.068C98.1072 216.324 98.0352 216.624 98.0352 216.968C98.0352 217.288 98.1112 217.58 98.2632 217.844C98.4152 218.108 98.6192 218.316 98.8752 218.468C99.1312 218.62 99.4072 218.696 99.7032 218.696ZM104.85 212.348H105.966V214.556H107.334V215.432H105.966V219.5H104.85V215.432H103.938V214.556H104.85V212.348ZM110.075 219.596C109.723 219.596 109.379 219.536 109.043 219.416C108.715 219.288 108.443 219.1 108.227 218.852L108.695 218.204C108.903 218.404 109.115 218.556 109.331 218.66C109.555 218.756 109.775 218.804 109.991 218.804C110.151 218.804 110.299 218.784 110.435 218.744C110.571 218.704 110.679 218.64 110.759 218.552C110.847 218.456 110.891 218.328 110.891 218.168C110.891 217.992 110.831 217.852 110.711 217.748C110.599 217.644 110.451 217.56 110.267 217.496C110.091 217.432 109.903 217.372 109.703 217.316C109.295 217.18 108.983 216.992 108.767 216.752C108.551 216.512 108.443 216.22 108.443 215.876C108.443 215.612 108.507 215.368 108.635 215.144C108.771 214.912 108.967 214.724 109.223 214.58C109.487 214.436 109.811 214.364 110.195 214.364C110.539 214.364 110.847 214.408 111.119 214.496C111.391 214.576 111.647 214.712 111.887 214.904L111.443 215.6C111.299 215.448 111.127 215.336 110.927 215.264C110.727 215.192 110.547 215.152 110.387 215.144C110.251 215.136 110.119 215.156 109.991 215.204C109.871 215.252 109.771 215.32 109.691 215.408C109.611 215.496 109.571 215.6 109.571 215.72C109.571 215.888 109.627 216.024 109.739 216.128C109.851 216.232 109.995 216.316 110.171 216.38C110.355 216.436 110.535 216.496 110.711 216.56C110.959 216.632 111.179 216.728 111.371 216.848C111.563 216.968 111.715 217.116 111.827 217.292C111.947 217.468 112.007 217.688 112.007 217.952C112.007 218.248 111.935 218.524 111.791 218.78C111.655 219.028 111.443 219.228 111.155 219.38C110.875 219.524 110.515 219.596 110.075 219.596Z" fill="white"/>
</g>
<defs>
<filter id="filter0_d_2002_2947" x="0.5" y="0" width="201" height="76" filterUnits="userSpaceOnUse" color-interpolation-filters="sRGB">
<feFlood flood-opacity="0" result="BackgroundImageFix"/>
<feColorMatrix in="SourceAlpha" type="matrix" values="0 0 0 0 0 0 0 0 0 0 0 0 0 0 0 0 0 0 127 0" result="hardAlpha"/>
<feMorphology radius="2" operator="dilate" in="SourceAlpha" result="effect1_dropShadow_2002_2947"/>
<feOffset dx="4" dy="4"/>
<feGaussianBlur stdDeviation="5"/>
<feComposite in2="hardAlpha" operator="out"/>
<feColorMatrix type="matrix" values="0 0 0 0 0.218954 0 0 0 0 0.552288 0 0 0 0 0.303922 0 0 0 0.1 0"/>
<feBlend mode="normal" in2="BackgroundImageFix" result="effect1_dropShadow_2002_2947"/>
<feBlend mode="normal" in="SourceGraphic" in2="effect1_dropShadow_2002_2947" result="shape"/>
</filter>
<filter id="filter1_d_2002_2947" x="7" y="72" width="188" height="76" filterUnits="userSpaceOnUse" color-interpolation-filters="sRGB">
<feFlood flood-opacity="0" result="BackgroundImageFix"/>
<feColorMatrix in="SourceAlpha" type="matrix" values="0 0 0 0 0 0 0 0 0 0 0 0 0 0 0 0 0 0 127 0" result="hardAlpha"/>
<feMorphology radius="2" operator="dilate" in="SourceAlpha" result="effect1_dropShadow_2002_2947"/>
<feOffset dx="4" dy="4"/>
<feGaussianBlur stdDeviation="5"/>
<feComposite in2="hardAlpha" operator="out"/>
<feColorMatrix type="matrix" values="0 0 0 0 0.218954 0 0 0 0 0.552288 0 0 0 0 0.303922 0 0 0 0.1 0"/>
<feBlend mode="normal" in2="BackgroundImageFix" result="effect1_dropShadow_2002_2947"/>
<feBlend mode="normal" in="SourceGraphic" in2="effect1_dropShadow_2002_2947" result="shape"/>
</filter>
<filter id="filter2_d_2002_2947" x="56" y="161" width="90" height="90" filterUnits="userSpaceOnUse" color-interpolation-filters="sRGB">
<feFlood flood-opacity="0" result="BackgroundImageFix"/>
<feColorMatrix in="SourceAlpha" type="matrix" values="0 0 0 0 0 0 0 0 0 0 0 0 0 0 0 0 0 0 127 0" result="hardAlpha"/>
<feOffset dx="4" dy="4"/>
<feGaussianBlur stdDeviation="7.5"/>
<feComposite in2="hardAlpha" operator="out"/>
<feColorMatrix type="matrix" values="0 0 0 0 0.262745 0 0 0 0 0.662745 0 0 0 0 0.364706 0 0 0 0.4 0"/>
<feBlend mode="normal" in2="BackgroundImageFix" result="effect1_dropShadow_2002_2947"/>
<feBlend mode="normal" in="SourceGraphic" in2="effect1_dropShadow_2002_2947" result="shape"/>
</filter>
<linearGradient id="paint0_linear_2002_2947" x1="59" y1="106" x2="163" y2="106" gradientUnits="userSpaceOnUse">
<stop offset="0.731739" stop-color="#388D4E"/>
<stop offset="0.900399" stop-color="#4FDFC2"/>
<stop offset="1" stop-color="#3184D0"/>
</linearGradient>
</defs>
</svg>
