<svg width="18" height="18" viewBox="0 0 18 18" fill="none" xmlns="http://www.w3.org/2000/svg">
<path d="M5.16626 1.75012C4.61373 1.75012 4.08382 1.96962 3.69312 2.36032C3.30242 2.75102 3.08293 3.28092 3.08293 3.83346C3.08293 4.38599 3.30242 4.91589 3.69312 5.30659C4.08382 5.6973 4.61373 5.91679 5.16626 5.91679C5.71879 5.91679 6.2487 5.6973 6.6394 5.30659C7.0301 4.91589 7.24959 4.38599 7.24959 3.83346C7.24959 3.28092 7.0301 2.75102 6.6394 2.36032C6.2487 1.96962 5.71879 1.75012 5.16626 1.75012ZM1.83293 3.83346C1.83293 2.9494 2.18412 2.10155 2.80924 1.47643C3.43436 0.851311 4.2822 0.500122 5.16626 0.500122C6.05031 0.500122 6.89816 0.851311 7.52328 1.47643C8.1484 2.10155 8.49959 2.9494 8.49959 3.83346C8.49959 4.71751 8.1484 5.56536 7.52328 6.19048C6.89816 6.8156 6.05031 7.16679 5.16626 7.16679C4.2822 7.16679 3.43436 6.8156 2.80924 6.19048C2.18412 5.56536 1.83293 4.71751 1.83293 3.83346ZM12.6663 3.41679C12.3347 3.41679 12.0168 3.54848 11.7824 3.78291C11.548 4.01733 11.4163 4.33527 11.4163 4.66679C11.4163 4.99831 11.548 5.31625 11.7824 5.55067C12.0168 5.78509 12.3347 5.91679 12.6663 5.91679C12.9978 5.91679 13.3157 5.78509 13.5501 5.55067C13.7846 5.31625 13.9163 4.99831 13.9163 4.66679C13.9163 4.33527 13.7846 4.01733 13.5501 3.78291C13.3157 3.54848 12.9978 3.41679 12.6663 3.41679ZM10.1663 4.66679C10.1663 4.00375 10.4297 3.36786 10.8985 2.89902C11.3673 2.43018 12.0032 2.16679 12.6663 2.16679C13.3293 2.16679 13.9652 2.43018 14.434 2.89902C14.9029 3.36786 15.1663 4.00375 15.1663 4.66679C15.1663 5.32983 14.9029 5.96571 14.434 6.43456C13.9652 6.9034 13.3293 7.16679 12.6663 7.16679C12.0032 7.16679 11.3673 6.9034 10.8985 6.43456C10.4297 5.96571 10.1663 5.32983 10.1663 4.66679ZM0.16626 10.7085C0.16626 10.2112 0.363804 9.73426 0.715434 9.38263C1.06707 9.031 1.54398 8.83346 2.04126 8.83346H8.29126C8.55459 8.83346 8.80543 8.88762 9.03293 8.98596C8.73793 9.31762 8.48293 9.68596 8.27626 10.0835H2.04126C1.8755 10.0835 1.71653 10.1493 1.59932 10.2665C1.48211 10.3837 1.41626 10.5427 1.41626 10.7085V10.9226L1.42209 10.9893C1.42793 11.051 1.44126 11.146 1.46793 11.2635C1.52293 11.4976 1.63293 11.8101 1.85043 12.121C2.26126 12.7085 3.14793 13.4168 5.16626 13.4168C6.34376 13.4168 7.13543 13.1751 7.67293 12.8585C7.69543 13.3051 7.77209 13.7376 7.89626 14.1501C7.20043 14.4668 6.30709 14.6668 5.16626 14.6668C2.80959 14.6668 1.50793 13.8126 0.82626 12.8376C0.470031 12.3255 0.247192 11.7326 0.177926 11.1126C0.172069 11.0556 0.168178 10.9983 0.16626 10.941V10.7085ZM13.0838 17.1685C14.0895 17.1682 15.0672 16.8373 15.8663 16.2266C16.6653 15.6159 17.2414 14.7594 17.5057 13.789C17.77 12.8187 17.7079 11.7883 17.3289 10.8568C16.9499 9.92522 16.2751 9.14414 15.4084 8.6339C14.5417 8.12367 13.5313 7.91259 12.5329 8.03321C11.5344 8.15382 10.6034 8.59943 9.88314 9.30136C9.16291 10.0033 8.6935 10.9226 8.54724 11.9176C8.40098 12.9126 8.58599 13.9281 9.07376 14.8076L8.51876 16.6293C8.49655 16.7016 8.49444 16.7786 8.51267 16.852C8.53089 16.9254 8.56875 16.9925 8.6222 17.046C8.67564 17.0995 8.74265 17.1375 8.81604 17.1559C8.88942 17.1742 8.96642 17.1722 9.03876 17.1501L10.8613 16.5951C11.5196 16.961 12.2779 17.1685 13.0838 17.1685ZM11.4171 12.1685C11.3065 12.1685 11.2004 12.1245 11.1222 12.0463C11.044 11.9681 11 11.862 11 11.7514C11 11.6408 11.044 11.5347 11.1222 11.4564C11.2004 11.3782 11.3065 11.3343 11.4171 11.3343H14.7504C14.8609 11.3343 14.9669 11.3782 15.0451 11.4563C15.1232 11.5345 15.1671 11.6404 15.1671 11.751C15.1671 11.8615 15.1232 11.9674 15.0451 12.0456C14.9669 12.1237 14.8609 12.1676 14.7504 12.1676L11.4171 12.1685ZM13.0838 13.8351H11.4171C11.3066 13.8351 11.2006 13.7912 11.1225 13.7131C11.0443 13.6349 11.0004 13.529 11.0004 13.4185C11.0004 13.3079 11.0443 13.202 11.1225 13.1238C11.2006 13.0457 11.3066 13.0018 11.4171 13.0018H13.0838C13.1943 13.0018 13.3002 13.0457 13.3784 13.1238C13.4565 13.202 13.5004 13.3079 13.5004 13.4185C13.5004 13.529 13.4565 13.6349 13.3784 13.7131C13.3002 13.7912 13.1943 13.8351 13.0838 13.8351Z" fill="#555555"/>
</svg>
