<svg width="18" height="18" viewBox="0 0 18 18" fill="none" xmlns="http://www.w3.org/2000/svg">
<path d="M10.8077 16.4084C14.2944 16.1775 17.071 13.3609 17.2994 9.82503C17.3435 9.13336 17.3435 8.41669 17.2994 7.72503C17.071 4.19003 14.2944 1.37503 10.8077 1.14253C9.60345 1.06317 8.39528 1.06317 7.19103 1.14253C3.70437 1.37419 0.927701 4.19003 0.699368 7.72586C0.655224 8.42517 0.655224 9.12656 0.699368 9.82586C0.782701 11.1134 1.35187 12.3059 2.0227 13.3125C2.41187 14.0167 2.1552 14.8959 1.74937 15.665C1.4577 16.2192 1.31103 16.4959 1.42853 16.6959C1.5452 16.8959 1.8077 16.9025 2.33187 16.915C3.36937 16.94 4.06853 16.6467 4.62353 16.2375C4.9377 16.005 5.0952 15.8892 5.20353 15.8759C5.31187 15.8625 5.52603 15.9509 5.9527 16.1259C6.33603 16.2842 6.78187 16.3817 7.1902 16.4092C8.3777 16.4875 9.61853 16.4875 10.8085 16.4092" stroke="#555555" stroke-width="1.2" stroke-linecap="round" stroke-linejoin="round"/>
<path d="M7.73872 4.83421V6.48337M4.83289 7.75087H6.54289M11.5187 7.75087H13.2287M11.5187 10.2292H13.2287M4.83289 10.2292H6.54289M7.73872 11.5167V13.1667M10.2596 11.5167V13.1667M10.2521 4.83337V6.48337M7.37705 11.4742H10.6862C10.9072 11.4742 11.1192 11.3864 11.2755 11.2301C11.4318 11.0738 11.5196 10.8619 11.5196 10.6409V7.31671C11.5196 7.09569 11.4318 6.88373 11.2755 6.72745C11.1192 6.57117 10.9072 6.48337 10.6862 6.48337H7.37705C7.15604 6.48337 6.94408 6.57117 6.7878 6.72745C6.63152 6.88373 6.54372 7.09569 6.54372 7.31671V10.6409C6.54372 10.8619 6.63152 11.0738 6.7878 11.2301C6.94408 11.3864 7.15604 11.4742 7.37705 11.4742Z" stroke="#555555" stroke-width="1.2" stroke-linecap="round" stroke-linejoin="round"/>
</svg>
