<svg width="10" height="10" viewBox="0 0 10 10" fill="none" xmlns="http://www.w3.org/2000/svg">
<path d="M3.73872 0.834207V2.48337M0.832886 3.75087H2.54289M7.51872 3.75087H9.22872M7.51872 6.22921H9.22872M0.832886 6.22921H2.54289M3.73872 7.51671V9.16671M6.25955 7.51671V9.16671M6.25205 0.833374V2.48337M3.37705 7.47421H6.68622C6.90723 7.47421 7.11919 7.38641 7.27547 7.23013C7.43175 7.07385 7.51955 6.86189 7.51955 6.64087V3.31671C7.51955 3.09569 7.43175 2.88373 7.27547 2.72745C7.11919 2.57117 6.90723 2.48337 6.68622 2.48337H3.37705C3.15604 2.48337 2.94408 2.57117 2.7878 2.72745C2.63152 2.88373 2.54372 3.09569 2.54372 3.31671V6.64087C2.54372 6.86189 2.63152 7.07385 2.7878 7.23013C2.94408 7.38641 3.15604 7.47421 3.37705 7.47421Z" stroke="#555555" stroke-width="1.2" stroke-linecap="round" stroke-linejoin="round"/>
</svg>
